<?xml version="1.0" encoding="utf-8"?>
<!DOCTYPE svg PUBLIC "-//W3C//DTD SVG 1.1//EN" "http://www.w3.org/Graphics/SVG/1.1/DTD/svg11.dtd">
<svg version="1.1" xmlns="http://www.w3.org/2000/svg" xmlns:xlink="http://www.w3.org/1999/xlink" x="0px" y="0px"
	 width="32px" height="32px" viewBox="-16 -16 32 32" enable-background="new -16 -16 32 32" xml:space="preserve">
<g>
	<g id="layer1">
		<g id="g2668" transform="matrix(.83316 0 0 .83316 420 -144.85)">
			<g id="path2656">
				<path d="M-523.309,193.06l4.248-15.948l20.244-19.999c0.281-0.267,2.689-2.461,5.891-2.461c1.988,0,3.828,0.829,5.469,2.465
					c1.714,1.71,2.573,3.607,2.556,5.63c-0.029,3.322-2.465,5.715-2.569,5.814l-20.657,20.408L-523.309,193.06z M-517.073,178.277
					l-3.096,11.625l10.9-2.94l20.25-20.007c0.026-0.026,1.884-1.872,1.895-4.248c0.007-1.396-0.632-2.744-1.9-4.01
					c-1.21-1.205-2.522-1.817-3.904-1.817c-2.382,0-4.27,1.763-4.35,1.838L-517.073,178.277z"/>
			</g>
			<g id="path2658_1_">
				<path d="M-508.233,187.317c-1.241,0-2.7-0.237-3.603-1.172c-1.664-1.737-1.02-4.763-0.941-5.101l2.163,0.509
					c-0.124,0.553-0.327,2.309,0.378,3.043c0.563,0.586,2.534,0.56,3.736,0.316l0.442,2.187
					C-506.363,187.16-507.226,187.317-508.233,187.317z"/>
			</g>
			<g id="path2662">
				<polygon points="-518.384,186.993 -517.115,188.346 -520.757,191.798 -522.026,190.444 				"/>
			</g>
			<g id="path2664">
				<path d="M-510.724,182.188l-1.569-1.58c2.634-2.637,23.265-23.486,23.265-23.486l1.575,1.574
					C-487.453,158.696-508.089,179.55-510.724,182.188z"/>
			</g>
		</g>
	</g>
	<g id="path2658_2_">
		<path d="M-7.952,7.291c-1.034,0-2.25-0.193-3.001-0.975c-1.388-1.447-0.852-3.969-0.785-4.252l1.802,0.424
			c-0.104,0.461-0.272,1.924,0.313,2.537c0.471,0.486,2.112,0.467,3.114,0.262l0.368,1.824C-6.393,7.162-7.112,7.291-7.952,7.291z"
			/>
	</g>
</g>
</svg>
