<?xml version="1.0" encoding="utf-8"?>
<!DOCTYPE svg PUBLIC "-//W3C//DTD SVG 1.1//EN" "http://www.w3.org/Graphics/SVG/1.1/DTD/svg11.dtd">
<svg version="1.1" xmlns="http://www.w3.org/2000/svg" xmlns:xlink="http://www.w3.org/1999/xlink" x="0px" y="0px"
	 width="32px" height="32px" viewBox="-16 -16 32 32" enable-background="new -16 -16 32 32" xml:space="preserve">
<path d="M-14-7v-2.188c0.043-0.793,0.355-1.459,0.939-2C-12.479-11.731-11.791-12-11-12h3v-1c0-0.832,0.293-1.541,0.875-2.125
	C-6.541-15.707-5.832-16-5-16H5c0.834,0,1.541,0.293,2.125,0.875C7.707-14.541,8-13.832,8-13v1h3c0.791,0,1.479,0.271,2.062,0.812
	c0.582,0.541,0.895,1.207,0.938,2V-7c0,0.543-0.197,1.01-0.594,1.405C13.009-5.198,12.541-5,12-5v17
	c0,1.125-0.387,2.072-1.156,2.844C10.074,15.614,9.125,16,8,16H-8c-1.125,0-2.072-0.387-2.842-1.156
	c-0.771-0.771-1.156-1.719-1.156-2.844V-5c-0.543,0-1.01-0.197-1.406-0.595C-13.8-5.991-14-6.459-14-7z M-12-7h24v-2
	c0-0.291-0.094-0.531-0.281-0.717C11.531-9.905,11.291-9.998,11-9.998h-22c-0.291,0-0.529,0.094-0.719,0.281
	C-11.907-9.531-12-9.291-12-9V-7L-12-7z M-10,11.998c0,0.543,0.199,1.012,0.596,1.406C-9.009,13.8-8.541,13.998-8,13.998H8
	c0.541,0,1.012-0.197,1.406-0.594C9.802,13.008,10,12.541,10,11.998V-5h-20V11.998L-10,11.998z M-8,10.998V-2
	c0-0.293,0.096-0.531,0.281-0.719C-7.531-2.908-7.291-3-7-3h2c0.293,0,0.531,0.094,0.721,0.281C-4.091-2.533-4-2.293-4-2v12.998
	c0,0.293-0.094,0.531-0.279,0.719C-4.467,11.905-4.707,11.998-5,11.998h-2c-0.291,0-0.529-0.094-0.719-0.281
	C-7.907,11.529-8,11.291-8,10.998L-8,10.998z M-7,10.998h2V-2h-2V10.998z M-6-12H6v-1c0-0.291-0.094-0.531-0.281-0.72
	C5.532-13.907,5.291-14,5-14H-5c-0.291,0-0.529,0.094-0.719,0.28C-5.907-13.531-6-13.291-6-13V-12L-6-12z M-2,10.998V-2
	c0-0.293,0.096-0.531,0.281-0.719C-1.531-2.908-1.291-3-1-3h2c0.291,0,0.531,0.094,0.721,0.281C1.909-2.533,2-2.293,2-2v12.998
	c0,0.293-0.094,0.531-0.279,0.719C1.533,11.905,1.291,11.998,1,11.998h-2c-0.291,0-0.529-0.094-0.719-0.281
	C-1.907,11.529-2,11.291-2,10.998z M-1,10.998h2V-2h-2V10.998z M4,10.998V-2c0-0.293,0.094-0.531,0.281-0.719
	C4.469-2.908,4.709-3,5-3h2c0.291,0,0.531,0.094,0.719,0.281C7.907-2.533,8-2.293,8-2v12.998c0,0.293-0.094,0.531-0.281,0.719
	C7.532,11.905,7.291,11.998,7,11.998H5c-0.291,0-0.531-0.094-0.719-0.281C4.093,11.53,4,11.291,4,10.998z M5,10.998h2V-2H5V10.998z"
	/>
</svg>
